name rise30.3154peak39.0474fall46.5389.mot
datacolumns 19
datarows 17
range 12.69328800000000 12.71995200000000
endheader
time	ground_force1_vx	ground_force1_vy	ground_force1_vz	ground_force1_px	ground_force1_py	ground_force1_pz	ground_force2_vx	ground_force2_vy	ground_force2_vz	ground_force2_px	ground_force2_py	ground_force2_pz	ground_torque1_x	ground_torque1_y	ground_torque1_z	ground_torque2_x	ground_torque2_y	ground_torque2_z	
12.69328800000000	-9.38246700000000	44.62742800000000	-11.31704900000000	0.30421200000000	0.00000000000000	0.08376700000000	-46.13728600000000	783.72259499999996	-59.22494100000000	0.15405400000000	0.00000000000000	-0.11591000000000	0.00000000000000	-7.68071400000000	0.00000000000000	0.00000000000000	-26.99732000000000	0.00000000000000	
12.69495800000000	-10.25402500000000	52.51610200000000	-12.66317400000000	0.31112600000000	0.00000000000000	0.08499000000000	-46.92498900000000	780.67739700000004	-58.97686000000000	0.15291600000000	0.00000000000000	-0.11583800000000	0.00000000000000	-8.70989500000000	0.00000000000000	0.00000000000000	-26.96540200000000	0.00000000000000	
12.69662000000000	-10.93941500000000	60.55762900000000	-13.86381400000000	0.31751800000000	0.00000000000000	0.08607700000000	-47.72938400000000	777.51517999999999	-58.70970300000000	0.15178100000000	0.00000000000000	-0.11576200000000	0.00000000000000	-9.66136200000000	0.00000000000000	0.00000000000000	-26.93465100000000	0.00000000000000	
12.69828800000000	-11.41345700000000	68.65212300000000	-14.88895700000000	0.32346600000000	0.00000000000000	0.08705100000000	-48.54937100000000	774.23345500000005	-58.42295400000000	0.15065100000000	0.00000000000000	-0.11568400000000	0.00000000000000	-10.51183800000000	0.00000000000000	0.00000000000000	-26.90486300000000	0.00000000000000	
12.69995400000000	-11.66170300000000	76.72246800000001	-15.71917800000000	0.32903300000000	0.00000000000000	0.08793200000000	-49.38374600000000	770.82964400000003	-58.11610500000000	0.14952600000000	0.00000000000000	-0.11560300000000	0.00000000000000	-11.24492600000000	0.00000000000000	0.00000000000000	-26.87580700000000	0.00000000000000	
12.70161800000000	-11.68022400000000	84.71687700000000	-16.34569600000000	0.33426800000000	0.00000000000000	0.08873400000000	-50.23120400000000	767.30109200000004	-57.78866100000000	0.14840900000000	0.00000000000000	-0.11551800000000	0.00000000000000	-11.85142400000000	0.00000000000000	0.00000000000000	-26.84723500000000	0.00000000000000	
12.70328400000000	-11.47458600000000	92.60894100000000	-16.76956300000000	0.33921100000000	0.00000000000000	0.08946800000000	-51.09033500000000	763.64507600000002	-57.44014500000000	0.14730000000000	0.00000000000000	-0.11543100000000	0.00000000000000	-12.32899300000000	0.00000000000000	0.00000000000000	-26.81887500000000	0.00000000000000	
12.70495200000000	-11.05821000000000	100.39557800000000	-17.00017600000000	0.34389400000000	0.00000000000000	0.09014500000000	-51.95963200000000	759.85881099999995	-57.07010100000000	0.14620000000000	0.00000000000000	-0.11533900000000	0.00000000000000	-12.68133100000000	0.00000000000000	0.00000000000000	-26.79043700000000	0.00000000000000	
12.70662600000000	-10.45038000000000	108.09341300000000	-17.05337200000000	0.34834300000000	0.00000000000000	0.09077100000000	-52.83749100000000	755.93946300000005	-56.67809500000000	0.14511100000000	0.00000000000000	-0.11524400000000	0.00000000000000	-12.91697600000000	0.00000000000000	0.00000000000000	-26.76161200000000	0.00000000000000	
12.70829200000000	-9.67411300000000	115.73416400000001	-16.94931400000000	0.35258000000000	0.00000000000000	0.09135300000000	-53.72221500000000	751.88415999999995	-56.26372300000000	0.14403400000000	0.00000000000000	-0.11514600000000	0.00000000000000	-13.04792700000000	0.00000000000000	0.00000000000000	-26.73207100000000	0.00000000000000	
12.70995600000000	-8.75409200000000	123.35958800000000	-16.71040200000000	0.35662500000000	0.00000000000000	0.09189800000000	-54.61201700000000	747.69000500000004	-55.82661100000000	0.14296900000000	0.00000000000000	-0.11504400000000	0.00000000000000	-13.08820700000000	0.00000000000000	0.00000000000000	-26.70146900000000	0.00000000000000	
12.71161800000000	-7.71481600000000	131.01647800000001	-16.35935700000000	0.36049200000000	0.00000000000000	0.09240800000000	-55.50502400000000	743.35408800000005	-55.36642100000000	0.14191800000000	0.00000000000000	-0.11493800000000	0.00000000000000	-13.05250800000000	0.00000000000000	0.00000000000000	-26.66944700000000	0.00000000000000	
12.71329200000000	-6.57908900000000	138.75209699999999	-15.91760700000000	0.36419400000000	0.00000000000000	0.09288900000000	-56.39927900000000	738.87350300000003	-54.88285300000000	0.14088100000000	0.00000000000000	-0.11482800000000	0.00000000000000	-12.95501200000000	0.00000000000000	0.00000000000000	-26.63562800000000	0.00000000000000	
12.71495700000000	-5.36689000000000	146.61033699999999	-15.40405600000000	0.36774500000000	0.00000000000000	0.09334300000000	-57.29275100000000	734.24536499999999	-54.37564700000000	0.13986000000000	0.00000000000000	-0.11471400000000	0.00000000000000	-12.80845200000000	0.00000000000000	0.00000000000000	-26.59962300000000	0.00000000000000	
12.71662400000000	-4.09466200000000	154.62876700000001	-14.83425600000000	0.37115200000000	0.00000000000000	0.09377300000000	-58.18333400000000	729.46682199999998	-53.84459000000000	0.13885600000000	0.00000000000000	-0.11459600000000	0.00000000000000	-12.62344000000000	0.00000000000000	0.00000000000000	-26.56103300000000	0.00000000000000	
12.71828500000000	-2.77498800000000	162.83663899999999	-14.21998000000000	0.37442400000000	0.00000000000000	0.09418200000000	-59.06885700000000	724.53507800000000	-53.28951800000000	0.13786900000000	0.00000000000000	-0.11447400000000	0.00000000000000	-12.40808500000000	0.00000000000000	0.00000000000000	-26.51944500000000	0.00000000000000	
12.71995200000000	-1.41661800000000	171.25384000000000	-13.56914800000000	0.37756900000000	0.00000000000000	0.09457200000000	-59.94708800000000	719.44741299999998	-52.71031500000000	0.13690000000000	0.00000000000000	-0.11434800000000	0.00000000000000	-12.16786300000000	0.00000000000000	0.00000000000000	-26.47443700000000	0.00000000000000	
